<svg width="25" height="25" viewBox="0 0 25 25" fill="none" xmlns="http://www.w3.org/2000/svg">
<g clip-path="url(#clip0_22_312)">
<path d="M10.3929 19.6429L14.2857 23.5179C14.5246 23.7627 14.8232 23.9409 15.152 24.0348C15.4809 24.1288 15.8286 24.1352 16.1607 24.0536C16.4949 23.9759 16.8035 23.8135 17.0568 23.5821C17.3101 23.3507 17.4996 23.058 17.6071 22.7321L24 3.57143C24.1334 3.21241 24.161 2.82264 24.0793 2.44843C23.9977 2.07423 23.8103 1.73134 23.5395 1.46051C23.2687 1.18969 22.9258 1.00232 22.5516 0.920685C22.1774 0.839049 21.7876 0.866577 21.4286 0.999996L2.26786 7.39285C1.93081 7.50798 1.63062 7.71103 1.39831 7.98101C1.166 8.25099 1.01 8.57811 0.946434 8.92857C0.880826 9.2473 0.895431 9.57734 0.988939 9.88903C1.08245 10.2007 1.25193 10.4843 1.48215 10.7143L6.37501 15.6071L6.21429 21.8036L10.3929 19.6429Z" stroke="#CACAE1" stroke-linecap="round" stroke-linejoin="round"/>
<path d="M23.4286 1.39285L6.375 15.6071" stroke="#CACAE1" stroke-linecap="round" stroke-linejoin="round"/>
</g>
<defs>
<clipPath id="clip0_22_312">
<rect width="25" height="25" fill="white"/>
</clipPath>
</defs>
</svg>
